# xmcd CD database file
#
# Track frame offsets:
#	150
#	36212
#	68687
#	93512
#	137537
#	177587
#
# Disc length: 2910 seconds
#
# Revision: 0
# Processed by: cddbd v1.5.1PL2 Copyright (c) Steve Scherf et al.
# Submitted via: CDex 1.51
#
DISCID=4d0b5c06
DTITLE=Michal Gera Band - Magomania
DYEAR=1995
DGENRE=Jazz
TTITLE0=Berenica
TTITLE1=MR.D.
TTITLE2=P.S.
TTITLE3=Alarica
TTITLE4=April
TTITLE5=Magomania
EXTD=YEAR: 1995
EXTT0=
EXTT1=
EXTT2=
EXTT3=
EXTT4=
EXTT5=
PLAYORDER=
